
<svg width="208" height="56" viewBox="0 0 208 56" fill="none" xmlns="http://www.w3.org/2000/svg">
                    <g clip-path="url(#clip0_1588_2443)">
                        <path opacity="0.5" d="M4.76123 27.8214C4.76123 27.8214 4.76123 27.9082 4.76123 27.9566C4.75992 32.7282 6.07206 37.408 8.55373 41.4827C11.0354 45.5574 14.5907 48.8696 18.8298 51.056C23.0688 53.2424 27.8278 54.2186 32.5848 53.8776C37.3418 53.5365 41.913 51.8912 45.7971 49.1223C45.9934 48.9566 46.2916 48.7908 46.4828 48.6123L47.1353 48.1023V41.087L44.1786 44.1752C40.9495 47.3978 36.8387 49.5914 32.3649 50.4791C27.8911 51.3667 23.2547 50.9087 19.0407 49.1629C14.8268 47.417 11.2241 44.4614 8.68733 40.6692C6.15052 36.8769 4.79323 32.4178 4.78672 27.8546C4.78924 27.8403 4.78924 27.8256 4.78672 27.8112L4.76123 27.8214Z" fill="white"></path>
                        <path opacity="0.25" d="M11.5283 11.5672C15.8635 7.24576 21.7324 4.81722 27.852 4.81244C33.9717 4.80766 39.8443 7.22703 44.1863 11.5417L47.1531 14.6273V7.65025C42.5652 4.08013 36.9578 1.96866 30.8407 1.96866C16.5367 1.96866 4.84279 13.541 4.76123 27.8214H4.78162C4.78192 24.8012 5.37803 21.8108 6.53578 19.0216C7.69352 16.2323 9.39012 13.6991 11.5283 11.5672Z" fill="white"></path>
                        <path d="M30.7336 53.9368C23.8446 53.9368 17.2378 51.1988 12.3665 46.3251C7.49529 41.4515 4.75865 34.8413 4.75865 27.9489C4.75865 13.5945 16.4883 1.95842 30.8407 1.95842C36.9578 1.95842 42.5652 4.08009 47.1531 7.65021V7.59921L46.5006 7.10704C41.3764 2.52361 34.7421 -0.00703181 27.8687 -4.66131e-05C12.5147 -4.66131e-05 1.21246e-05 12.4954 1.21246e-05 27.8571C-0.00494444 33.1696 1.50989 38.3725 4.36558 42.8513C7.22126 47.33 11.2985 50.8975 16.1156 53.1323C20.9328 55.3671 26.2886 56.1759 31.5504 55.463C36.8122 54.7502 41.7602 52.5455 45.8098 49.1095C41.4124 52.2559 36.1398 53.9441 30.7336 53.9368Z" fill="white"></path>
                    </g>
                    <g clip-path="url(#clip1_1588_2443)">
                        <path d="M22.2859 26.8833V26.8424C22.2772 25.8668 22.4616 24.8995 22.8282 23.9978C23.1947 23.0962 23.7358 22.2786 24.4194 21.5936C25.1031 20.9087 25.9152 20.3704 26.8076 20.0108C27.7 19.6511 28.6544 19.4774 29.6142 19.5C32.4524 19.5 34.2789 20.7101 35.5099 22.4433L32.6091 24.7179C31.8167 23.708 30.9035 23.062 29.5739 23.062C27.6265 23.062 26.2567 24.7361 26.2567 26.7969V26.8333C26.2567 28.9532 27.6265 30.6091 29.5739 30.6091C31.0199 30.6091 31.8749 29.9221 32.7076 28.894L35.604 30.9912C34.9358 32.0168 34.0176 32.8492 32.939 33.4072C31.8603 33.9653 30.6578 34.23 29.4485 34.1756C28.5029 34.1898 27.5642 34.0107 26.688 33.6491C25.8118 33.2874 25.0161 32.7506 24.348 32.0704C23.6799 31.3902 23.1531 30.5806 22.7989 29.6895C22.4446 28.7985 22.2702 27.8442 22.2859 26.8833Z" fill="white"></path>
                        <path d="M36.741 19.782H40.5954V30.4771H47.3104V33.9072H36.741V19.782Z" fill="white"></path>
                        <path d="M48.0581 26.8833V26.8424C48.0581 22.789 51.2768 19.5 55.5655 19.5C59.8541 19.5 63.0236 22.7481 63.0236 26.806V26.8424C63.0236 30.9002 59.8049 34.1893 55.5162 34.1893C51.2276 34.1893 48.0581 30.9412 48.0581 26.8833ZM59.102 26.8833V26.8424C59.102 24.8043 57.6516 23.0302 55.5207 23.0302C53.3898 23.0302 52.0065 24.7634 52.0065 26.806V26.8424C52.0065 28.8849 53.457 30.6591 55.561 30.6591C57.665 30.6591 59.102 28.9259 59.102 26.8833Z" fill="white"></path>
                        <path d="M63.7263 31.8101L65.8662 29.2034C67.1316 30.2798 68.724 30.8792 70.3742 30.9002C71.4083 30.9002 71.9634 30.5363 71.9634 29.9313V29.8903C71.9634 29.3035 71.5157 28.9805 69.6221 28.5256C66.663 27.8523 64.3665 27.0061 64.3665 24.0992V24.0492C64.3665 21.4289 66.4123 19.5319 69.7385 19.5319C71.802 19.4517 73.8269 20.1156 75.4552 21.4061L73.5302 24.172C72.4019 23.3188 71.0454 22.8334 69.64 22.78C68.7044 22.78 68.2477 23.1848 68.2477 23.6898V23.7307C68.2477 24.3767 68.7267 24.6406 70.6517 25.0955C73.8481 25.8006 75.8357 26.8515 75.8357 29.4945V29.5355C75.8357 32.4197 73.5974 34.1347 70.213 34.1347C67.844 34.1905 65.5368 33.3637 63.7263 31.8101Z" fill="white"></path>
                        <path d="M77.3757 19.782H88.5674V23.112H81.1854V25.2501H87.8556V28.339H81.1854V30.5772H88.6524V33.9072H77.3757V19.782Z" fill="white"></path>
                        <path d="M90.4834 19.782H97.0462C99.1726 19.782 100.628 20.3461 101.577 21.3151C101.994 21.7471 102.319 22.2624 102.531 22.8285C102.743 23.3946 102.837 23.9992 102.808 24.6042V24.6451C102.839 25.5814 102.58 26.504 102.066 27.2821C101.553 28.0602 100.811 28.6544 99.9471 28.9805L103.264 33.9072H98.8368L96.0389 29.631H94.3602V33.9072H90.5058L90.4834 19.782ZM96.8761 26.5603C98.1877 26.5603 98.9443 25.9189 98.9443 24.8862V24.8453C98.9443 23.7353 98.1474 23.1712 96.8582 23.1712H94.3602V26.5603H96.8761Z" fill="white"></path>
                        <path d="M116.649 33.9027H114.187V22.0748H109.782V19.8002H121.059V22.0794H116.649V33.9027Z" fill="white"></path>
                        <path d="M128.642 34.1483C127.691 34.1742 126.744 34.0043 125.859 33.6487C124.973 33.2932 124.168 32.7594 123.491 32.0795C122.814 31.3996 122.279 30.5876 121.919 29.6922C121.559 28.7969 121.38 27.8368 121.395 26.8697C121.436 24.9423 122.217 23.1077 123.572 21.7577C124.926 20.4076 126.746 19.6489 128.643 19.6435C130.54 19.6382 132.364 20.3866 133.725 21.7291C135.087 23.0715 135.878 24.9016 135.93 26.8287C135.94 27.8 135.758 28.7634 135.394 29.6617C135.03 30.5599 134.492 31.3747 133.812 32.0575C133.132 32.7403 132.324 33.2773 131.436 33.6365C130.548 33.9956 129.598 34.1697 128.642 34.1483ZM128.642 21.8201C125.88 21.8201 123.955 24.0583 123.955 26.8242C123.955 29.5901 125.92 31.8737 128.683 31.8737C131.445 31.8737 133.37 29.631 133.37 26.8697C133.37 24.1083 131.4 21.8201 128.642 21.8201Z" fill="white"></path>
                        <path d="M149.938 33.9027H147.476V22.0748H143.066V19.8002H154.347V22.0794H149.938V33.9027Z" fill="white"></path>
                        <path d="M165.091 33.9027L161.68 28.9805H158.618V33.9027H156.178V19.782H162.374C165.57 19.782 167.536 21.4971 167.536 24.2584C167.536 26.6012 166.166 28.016 164.218 28.5574L167.974 33.9027H165.091ZM162.172 22.0384H158.618V26.7787H162.199C163.945 26.7787 165.06 25.8688 165.06 24.3995C165.055 22.8482 163.981 22.0384 162.172 22.0384Z" fill="white"></path>
                        <path d="M181.655 27.7886C181.655 32.0102 179.309 34.1256 175.679 34.1256C172.048 34.1256 169.76 32.0102 169.76 27.9114V19.782H172.2V27.8113C172.2 30.4362 173.543 31.8464 175.719 31.8464C177.895 31.8464 179.211 30.5135 179.211 27.9114V19.782H181.655V27.7886Z" fill="white"></path>
                        <path d="M190.246 33.9027H187.784V22.0748H183.374V19.8002H194.637V22.0794H190.232L190.246 33.9027Z" fill="white"></path>
                        <path d="M198.926 27.9524V33.9027H196.486V19.782H198.926V25.6505H205.556V19.782H208V33.8845H205.556V27.9524H198.926Z" fill="white"></path>
                    </g>
                    <defs>
                        <clipPath id="clip0_1588_2443">
                            <rect width="47.1429" height="55.7143" fill="white"></rect>
                        </clipPath>
                        <clipPath id="clip1_1588_2443">
                            <rect width="185.714" height="14.6893" fill="white" transform="translate(22.2859 19.5)"></rect>
                        </clipPath>
                    </defs>
</svg>