<svg width="61" height="61" viewBox="0 0 61 61" fill="none" xmlns="http://www.w3.org/2000/svg">
<path fill-rule="evenodd" clip-rule="evenodd" d="M30.5 61C13.6545 61 0 47.3455 0 30.5C0 13.6545 13.6545 0 30.5 0C47.3455 0 61 13.6545 61 30.5C61 47.3455 47.3455 61 30.5 61ZM31.0338 44.4633C32.9934 45.8186 35.4791 46.625 38.1707 46.625C38.8405 46.625 39.5007 46.576 40.1513 46.4782C40.3744 46.5697 40.5898 46.6822 40.8547 46.8347C41.4266 47.1702 42.1891 47.6848 43.1423 48.3787C43.9219 48.9487 45.0256 48.3978 45.0256 47.4389V44.6539C45.4259 44.3947 45.804 44.1138 46.1598 43.8113C48.3139 41.9852 49.5625 39.488 49.5625 36.8097C49.5625 35.0464 49.0288 33.3975 48.0909 31.9735C47.7943 32.9844 47.3937 33.9618 46.8957 34.8901C47.0952 35.5064 47.1962 36.1463 47.1987 36.8097C47.1987 38.7807 46.2685 40.6412 44.6215 42.0366C44.1964 42.3954 43.7389 42.7139 43.2547 42.9878C43.0751 43.0889 42.9255 43.2359 42.8213 43.4137C42.7171 43.5916 42.6621 43.7939 42.6619 44.0001V45.1896C41.5315 44.4652 40.7556 44.124 40.1647 44.124C40.0984 44.1262 40.0322 44.132 39.9664 44.1411C38.3103 44.4178 36.6125 44.3069 35.0064 43.8171C33.7055 44.1544 32.3763 44.3713 31.0357 44.4652L31.0338 44.4633ZM16.8017 38.8932C17.4292 39.4264 18.0943 39.9138 18.7918 40.3515V45.1019C18.7918 46.3028 20.1738 46.9891 21.1479 46.2761C23.8358 44.3127 25.7039 43.2033 26.1709 43.0927C27.2511 43.2643 28.3491 43.35 29.4649 43.35C39.3774 43.35 47.4942 36.4742 47.4942 27.8713C47.4942 19.2665 39.3755 12.3906 29.4649 12.3906C19.5543 12.3906 11.4375 19.2665 11.4375 27.8694C11.4375 32.0822 13.4009 36.011 16.8017 38.8932ZM26.2357 40.1628C25.2769 40.1628 23.8758 40.8395 21.7484 42.2673V39.528C21.7465 39.2703 21.6768 39.0177 21.5463 38.7955C21.4158 38.5733 21.2291 38.3894 21.005 38.2623C20.1983 37.8034 19.4352 37.2719 18.7251 36.6743C15.9553 34.3316 14.3922 31.1977 14.3922 27.8694C14.3922 20.9878 21.0946 15.311 29.4649 15.311C37.8372 15.311 44.5376 20.9878 44.5376 27.8694C44.5376 34.7509 37.8372 40.4297 29.4649 40.4297C28.4533 40.4297 27.4595 40.3471 26.4835 40.1818C26.4014 40.1701 26.3186 40.1637 26.2357 40.1628ZM21.7808 30.7917C23.0866 30.7917 24.1446 29.7432 24.1446 28.4546C24.1446 27.1641 23.0866 26.1175 21.7808 26.1175C20.475 26.1175 19.4171 27.1641 19.4171 28.4546C19.4171 29.7451 20.475 30.7917 21.7808 30.7917ZM29.4649 30.7917C30.7707 30.7917 31.8287 29.7432 31.8287 28.4546C31.8287 27.1641 30.7707 26.1175 29.4649 26.1175C28.1591 26.1175 27.1012 27.1641 27.1012 28.4546C27.1012 29.7451 28.1591 30.7917 29.4649 30.7917ZM37.149 30.7917C38.4548 30.7917 39.5128 29.7432 39.5128 28.4546C39.5128 27.1641 38.4548 26.1175 37.149 26.1175C35.8432 26.1175 34.7852 27.1641 34.7852 28.4546C34.7852 29.7451 35.8432 30.7917 37.149 30.7917Z" fill="#EF8143"/>
</svg>
