<svg width="40" height="40" viewBox="0 0 46 42" fill="none" xmlns="http://www.w3.org/2000/svg">
<path d="M26.0775 34.4095C27.5279 34.3103 28.9662 34.0787 30.3744 33.7174C32.1137 34.2402 33.9494 34.3586 35.7415 34.0635C35.813 34.0547 35.8849 34.0494 35.9569 34.0474C36.5963 34.0474 37.435 34.4141 38.6588 35.1864V33.9168C38.6593 33.6956 38.7191 33.4786 38.8319 33.2884C38.9448 33.0981 39.1066 32.9416 39.3004 32.8351C39.8336 32.5342 40.3263 32.1958 40.7785 31.8199C42.5615 30.3303 43.5675 28.3412 43.5675 26.2374C43.5675 25.543 43.4575 24.851 43.2398 24.191C43.7788 23.2011 44.2121 22.1572 44.5323 21.0766C45.5635 22.6005 46.1181 24.3995 46.125 26.2374C46.125 29.0974 44.7775 31.7649 42.4423 33.7151C42.0512 34.0405 41.6425 34.34 41.2163 34.6135V37.588C41.2163 38.6101 40.02 39.1991 39.1767 38.5895C38.3776 38.0015 37.5517 37.4509 36.7017 36.9395C36.4561 36.7979 36.202 36.6716 35.9408 36.5614C35.2314 36.6664 34.5153 36.7193 33.7981 36.7195C30.8877 36.7195 28.1973 35.8555 26.0775 34.4095ZM10.6752 28.4626C6.99938 25.3849 4.875 21.1889 4.875 16.6926C4.875 7.50763 13.6567 0.162842 24.3794 0.162842C35.1044 0.162842 43.8883 7.50534 43.8883 16.6926C43.8883 25.8799 35.1044 33.2201 24.3794 33.2201C23.1862 33.2214 21.9947 33.1294 20.8158 32.9451C20.3117 33.062 18.2904 34.2468 15.38 36.3437C14.3258 37.1045 12.8317 36.3712 12.8317 35.0901V30.0187C12.0768 29.552 11.3569 29.0312 10.6775 28.4603M20.8869 29.817C20.9755 29.817 21.0649 29.8239 21.155 29.8376C22.2092 30.0118 23.284 30.0996 24.3794 30.1012C33.4383 30.1012 40.6869 24.0397 40.6869 16.6903C40.6869 9.34326 33.4383 3.28409 24.3817 3.28409C15.325 3.28409 8.07188 9.34326 8.07188 16.6903C8.07188 20.2424 9.76771 23.5883 12.7606 26.093C13.5153 26.7225 14.3373 27.2878 15.2265 27.7889C15.4677 27.9227 15.669 28.1182 15.8099 28.3554C15.9508 28.5925 16.0263 28.8628 16.0285 29.1387V32.0628C18.3317 30.5389 19.8465 29.817 20.8869 29.817Z" fill="black"/>
<path d="M16.4756 19.5C17.1593 19.5 17.8151 19.2284 18.2986 18.7449C18.7821 18.2614 19.0537 17.6056 19.0537 16.9219C19.0537 16.2381 18.7821 15.5824 18.2986 15.0989C17.8151 14.6154 17.1593 14.3438 16.4756 14.3438C15.7918 14.3438 15.1361 14.6154 14.6526 15.0989C14.1691 15.5824 13.8975 16.2381 13.8975 16.9219C13.8975 17.6056 14.1691 18.2614 14.6526 18.7449C15.1361 19.2284 15.7918 19.5 16.4756 19.5Z" fill="black"/>
<path d="M24.8564 19.5C25.5402 19.5 26.196 19.2284 26.6795 18.7449C27.1629 18.2614 27.4346 17.6056 27.4346 16.9219C27.4346 16.2381 27.1629 15.5824 26.6795 15.0989C26.196 14.6154 25.5402 14.3438 24.8564 14.3438C24.1727 14.3438 23.5169 14.6154 23.0334 15.0989C22.5499 15.5824 22.2783 16.2381 22.2783 16.9219C22.2783 17.6056 22.5499 18.2614 23.0334 18.7449C23.5169 19.2284 24.1727 19.5 24.8564 19.5Z" fill="black"/>
<path d="M33.2344 19.5C33.9181 19.5 34.5739 19.2284 35.0574 18.7449C35.5409 18.2614 35.8125 17.6056 35.8125 16.9219C35.8125 16.2381 35.5409 15.5824 35.0574 15.0989C34.5739 14.6154 33.9181 14.3438 33.2344 14.3438C32.5506 14.3438 31.8949 14.6154 31.4114 15.0989C30.9279 15.5824 30.6562 16.2381 30.6562 16.9219C30.6562 17.6056 30.9279 18.2614 31.4114 18.7449C31.8949 19.2284 32.5506 19.5 33.2344 19.5Z" fill="black"/>
</svg>
